<?xml version="1.0" encoding="UTF-8" standalone="no"?>
<!-- Created with Inkscape (http://www.inkscape.org/) -->

<svg
   xmlns:dc="http://purl.org/dc/elements/1.1/"
   xmlns:cc="http://creativecommons.org/ns#"
   xmlns:rdf="http://www.w3.org/1999/02/22-rdf-syntax-ns#"
   xmlns:svg="http://www.w3.org/2000/svg"
   xmlns="http://www.w3.org/2000/svg"
   xmlns:sodipodi="http://sodipodi.sourceforge.net/DTD/sodipodi-0.dtd"
   xmlns:inkscape="http://www.inkscape.org/namespaces/inkscape"
   version="1.1"
   id="svg2"
   xml:space="preserve"
   width="362.01334"
   height="362.02667"
   viewBox="0 0 362.01334 362.02667"
   sodipodi:docname="Brooklyn Brewery Logo Color.svg"
   inkscape:version="0.92.4 (5da689c313, 2019-01-14)"><metadata
     id="metadata8"><rdf:RDF><cc:Work
         rdf:about=""><dc:format>image/svg+xml</dc:format><dc:type
           rdf:resource="http://purl.org/dc/dcmitype/StillImage" /><dc:title /></cc:Work></rdf:RDF></metadata><defs
     id="defs6" /><sodipodi:namedview
     pagecolor="#ffffff"
     bordercolor="#666666"
     borderopacity="1"
     objecttolerance="10"
     gridtolerance="10"
     guidetolerance="10"
     inkscape:pageopacity="0"
     inkscape:pageshadow="2"
     inkscape:window-width="1920"
     inkscape:window-height="1021"
     id="namedview4"
     showgrid="false"
     inkscape:zoom="1.3037713"
     inkscape:cx="129.32331"
     inkscape:cy="144.03098"
     inkscape:window-x="0"
     inkscape:window-y="31"
     inkscape:window-maximized="1"
     inkscape:current-layer="g10" /><g
     id="g10"
     inkscape:groupmode="layer"
     inkscape:label="Brooklyn Brewery"
     transform="matrix(1.3333333,0,0,-1.3333333,0,362.02667)"><path
       inkscape:connector-curvature="0"
       id="path32"
       style="display:inline;fill:none;stroke:#231f20;stroke-width:1.51091003;stroke-linecap:butt;stroke-linejoin:miter;stroke-miterlimit:4;stroke-dasharray:none;stroke-opacity:1"
       d="m 135.759,0.755078 c 74.572,0 134.996,60.442922 134.996,135.007922 0,74.562 -60.424,135 -134.996,135 -74.5824,0 -135.003531,-60.438 -135.003531,-135 C 0.755469,61.198 61.1766,0.755078 135.759,0.755078 Z"
       inkscape:label="Black outter line" /><path
       inkscape:connector-curvature="0"
       id="path34"
       style="display:inline;fill:#231f20;fill-opacity:1;fill-rule:nonzero;stroke:none;stroke-width:0.1"
       d="m 135.759,6.81797 c 71.206,0 128.936,57.72893 128.936,128.94503 0,71.213 -57.73,128.931 -128.936,128.931 C 64.5387,264.694 6.80898,206.976 6.80898,135.763 6.80898,64.5469 64.5387,6.81797 135.759,6.81797"
       inkscape:label="Black circle" /><path
       inkscape:connector-curvature="0"
       id="path36"
       style="fill:#0f9b4a;fill-opacity:1;fill-rule:nonzero;stroke:#000000;stroke-width:1.45725004;stroke-miterlimit:4;stroke-dasharray:none;stroke-opacity:1"
       d="m 135.759,45.1531 c 50.047,0 90.601,40.561 90.601,90.6099 0,50.044 -40.554,90.609 -90.601,90.609 -50.0535,0 -90.6223,-40.565 -90.6223,-90.609 0,-50.0489 40.5688,-90.6099 90.6223,-90.6099"
       inkscape:label="Green circle" /><path
       inkscape:connector-curvature="0"
       id="path44"
       style="fill:#ffffff;fill-opacity:1;fill-rule:nonzero;stroke:none;stroke-width:0.1"
       d="m 138.176,113.966 c -3.625,-5.096 -5.753,-9.504 -10.342,-13.631 -1.966,-1.719 -5.214,-4.2659 -7.397,-5.735 11.697,0.832 25.569,7.638 31.512,15.431 -4.537,1.234 -8.77,3.18 -13.773,3.935 m -24.624,3.612 c -4.607,-0.251 -8.811,-1.179 -11.81,-3.257 -1.33,-0.927 -3.6002,-3.144 -4.2627,-4.626 -1.2488,-2.721 -0.5313,-5.54 0.9594,-7.226 9.4993,-10.396 22.1333,6.668 23.6533,14.769 -2.637,0.311 -6.416,0.457 -8.54,0.34 m 38.075,28.874 c -2.523,-4.076 -3.49,-9.366 -6.05,-14.925 -2.047,-4.341 -0.198,-3.538 3.439,-4.768 3.904,-1.289 9.053,-2.854 13.129,-3.933 6.742,11.543 2.208,21.909 -10.518,23.626 m 64.054,-46.6918 c -8.518,-1.6481 -17.468,-1.0204 -25.939,0.0949 -2.864,0.3779 -10.806,2.2859 -12.506,2.2859 -1.047,0 -5.661,-5.8539 -6.877,-6.8629 -3.867,-3.259 -8.101,-6.998 -12.473,-9.5359 C 151.22,81.9148 143.743,77.9602 135.88,75.5699 111.897,68.3102 82.8566,72.6309 70.5301,88.3648 65.3,95.075 62.5465,105.896 67.2703,115.952 c 0.1504,0.295 0.707,1.145 0.9668,1.626 0.3004,0.581 0.9047,1.377 1.3184,1.971 11.0449,15.435 36.1895,17.069 60.0735,13.128 2.864,4.876 4.508,10.714 6.577,16.414 3.926,10.814 9.089,20.693 16.589,28.054 2.41,2.393 5.991,5.341 9.69,6.39 4.201,1.237 9.082,0.404 9.009,-2.131 -4.87,-3.465 -8.712,-6.169 -11.656,-12.615 -3.937,-8.651 3.511,-1.906 6.591,0 4.677,2.893 11.957,12.4 6.552,19.997 -5.925,8.33 -24.756,5.84 -28.572,-3.275 -1.589,-3.756 1.084,-5.296 2.64,-6.235 l 0.846,-0.517 c 0,0 -0.318,-1.435 -0.534,-2.052 -2.542,-7.682 -12.444,-19.393 -22.006,-11.891 -2.091,1.679 -4.112,4.433 -4.577,7.572 -0.942,6.148 1.669,10.453 3.464,13.941 9.283,18.135 41.202,28.134 61.498,12.647 12.524,-9.519 8.964,-29 -1.927,-37.754 -3.97,-3.163 -8.986,-5.274 -13.795,-7.531 9.672,-6.96 19.16,-15.561 15.443,-33.161 -0.044,-0.135 -1.318,-5.583 -1.318,-5.583 9.382,-4.627 21.815,-6.077 35.046,-5.262 l -3.508,-9.9248"
       inkscape:label="B" /><path
       inkscape:connector-curvature="0"
       id="path76"
       style="display:inline;fill:none;stroke:#231f20;stroke-width:1.45725;stroke-linecap:butt;stroke-linejoin:miter;stroke-miterlimit:4;stroke-dasharray:none;stroke-opacity:1"
       d="m 135.759,48.0832 c 48.428,0 87.664,39.2656 87.664,87.6798 0,48.422 -39.236,87.672 -87.664,87.672 -48.4277,0 -87.6707,-39.25 -87.6707,-87.672 0,-48.4142 39.243,-87.6798 87.6707,-87.6798 z"
       inkscape:label="Black line" /><path
       inkscape:connector-curvature="0"
       id="path38"
       style="display:inline;fill:none;stroke:#fdfdfd;stroke-width:6.03776026;stroke-linecap:butt;stroke-linejoin:miter;stroke-miterlimit:4;stroke-dasharray:none;stroke-opacity:1"
       d="m 135.759,45.1531 c 50.047,0 90.601,40.561 90.601,90.6099 0,50.044 -40.554,90.609 -90.601,90.609 -50.0535,0 -90.6223,-40.565 -90.6223,-90.609 0,-50.0489 40.5688,-90.6099 90.6223,-90.6099 z"
       inkscape:label="White center line" /><g
       id="g943"
       inkscape:label="Brooklyn"><path
         d="m 50.648,194.845 4.8122,6.328 c 1.9847,2.569 2.2007,4.06 0.5457,5.311 -1.6223,1.254 -3.025,0.67 -4.995,-1.912 l -4.8269,-6.323 z m -8.2507,6.305 3.8597,5.029 c 2.4317,3.205 2.8457,4.192 1.3664,5.325 -1.498,1.121 -2.3257,0.482 -4.7757,-2.708 L 38.977,203.742 Z M 31.909,200.351 c -0.359,0.264 -0.6887,0.339 -1.4719,-0.555 l -0.4394,0.359 10.8105,14.16 c 3.0613,4.002 6.7969,5.799 10.4586,2.979 2.227,-1.686 2.4758,-4.242 1.3332,-6.674 l 0.0805,-0.052 c 2.5636,2 5.2847,2.793 8.0496,0.693 2.9554,-2.284 3.7793,-6.436 -0.2602,-11.719 l -10.9535,-14.313 -0.4469,0.353 c 0.6301,0.956 0.4543,1.276 0.1395,1.529 l -17.3,13.24"
         style="fill:#ffffff;fill-opacity:1;fill-rule:nonzero;stroke:none;stroke-width:0.1"
         id="path46"
         inkscape:connector-curvature="0" /><path
         d="m 64.0988,223.02 6.2477,4.702 c 2.1898,1.666 2.1461,3.16 1.3183,4.239 -0.798,1.075 -2.2265,1.532 -4.3945,-0.145 l -6.2844,-4.709 z m 7.7016,-10.238 c 0.2672,-0.324 0.575,-0.491 1.5711,0.115 l 0.3297,-0.439 -7.6832,-5.804 -0.3153,0.439 c 0.8536,0.778 0.7477,1.126 0.5133,1.474 l -13.125,17.357 c -0.2492,0.331 -0.568,0.518 -1.5531,-0.108 l -0.3512,0.434 13.6446,10.314 c 5.5152,4.186 9.3242,4.025 12.5464,-0.227 2.5926,-3.43 1.7399,-6.949 -0.6957,-10.133 l 9.0528,-2.853 c 0.7179,-0.254 1.1937,-0.174 1.5965,0.126 l 0.3371,-0.43 -7.7418,-5.892 -0.3512,0.465 c 0.5125,0.425 0.6664,0.831 0.3219,1.276 -0.2743,0.344 -8.1039,2.496 -9.166,2.926 l -3.6696,-2.77 4.7387,-6.27"
         style="fill:#ffffff;fill-opacity:1;fill-rule:nonzero;stroke:none;stroke-width:0.1"
         id="path48"
         inkscape:connector-curvature="0" /><path
         d="m 87.998,236.213 c 1.611,-4.087 5.8813,-5.097 9.6536,-3.599 3.7794,1.497 6.2254,5.118 4.6024,9.19 -1.6,4.106 -5.8696,5.078 -9.6489,3.6 -3.7649,-1.495 -6.2035,-5.108 -4.6071,-9.191 m 20.702,8.129 c 2.992,-7.578 -1.571,-14.108 -8.9574,-17.001 -7.3832,-2.939 -15.1649,-1.286 -18.1645,6.312 -3.0172,7.601 1.5711,14.13 8.9504,17.067 7.3863,2.915 15.1505,1.252 18.1715,-6.378"
         style="fill:#ffffff;fill-opacity:1;fill-rule:nonzero;stroke:none;stroke-width:0.1"
         id="path50"
         inkscape:connector-curvature="0" /><path
         d="m 116.789,245.377 c 0.451,-4.376 4.271,-6.502 8.306,-6.063 4.061,0.39 7.375,3.257 6.943,7.599 -0.476,4.395 -4.284,6.469 -8.327,6.064 -4.065,-0.41 -7.368,-3.244 -6.922,-7.6 m 22.123,2.257 c 0.835,-8.157 -5.314,-13.192 -13.216,-13.998 -7.907,-0.811 -14.971,2.891 -15.791,11.041 -0.824,8.121 5.332,13.171 13.213,13.971 7.939,0.81 14.977,-2.893 15.794,-11.014"
         style="fill:#ffffff;fill-opacity:1;fill-rule:nonzero;stroke:none;stroke-width:0.1"
         id="path52"
         inkscape:connector-curvature="0" /><path
         d="m 157.644,232.126 0.121,0.558 c 0.546,-0.09 0.886,-0.143 0.978,0.452 0.095,0.531 -4.212,9.619 -4.706,10.882 l -5.211,-3.272 -0.931,-5.532 c -0.091,-0.434 0,-0.757 1.136,-1.071 l -0.07,-0.536 -9.499,1.607 0.08,0.556 c 1.176,-0.1 1.373,0.199 1.439,0.6 l 3.651,21.489 c 0.074,0.409 -0.007,0.756 -1.153,1.055 l 0.095,0.544 9.507,-1.61 -0.11,-0.569 c -1.157,0.121 -1.355,-0.176 -1.421,-0.604 l -1.432,-8.28 0.348,-0.061 c 4.281,2.974 10.386,6.468 10.477,6.995 0.107,0.542 -0.234,0.608 -0.728,0.745 l 0.098,0.542 11.683,-1.98 -0.085,-0.567 c -1.223,0.106 -1.497,-0.236 -2.834,-1.027 l -9.119,-5.51 7.002,-15.655 c 0.381,-0.852 0.769,-0.885 1.326,-0.995 l -0.066,-0.536 -10.576,1.78"
         style="fill:#ffffff;fill-opacity:1;fill-rule:nonzero;stroke:none;stroke-width:0.1"
         id="path54"
         inkscape:connector-curvature="0" /><path
         d="m 178.306,231.116 14.413,-7.071 c 0.477,-0.218 0.759,-0.103 1.341,0.789 l 0.498,-0.22 -3.596,-7.399 -0.517,0.257 c 0.323,0.923 0.249,1.221 -0.216,1.446 l -21.906,10.73 0.227,0.497 c 1.12,-0.413 1.362,-0.193 1.56,0.201 l 9.573,19.563 c 0.205,0.377 0.205,0.73 -0.806,1.314 l 0.263,0.504 8.658,-4.23 -0.257,-0.511 c -1.105,0.44 -1.354,0.198 -1.56,-0.152 l -7.675,-15.718"
         style="fill:#ffffff;fill-opacity:1;fill-rule:nonzero;stroke:none;stroke-width:0.1"
         id="path56"
         inkscape:connector-curvature="0" /><path
         d="m 215.754,229.536 6.995,-5.52 -0.341,-0.429 c -0.406,0.292 -0.904,0.158 -1.428,0.041 l -14.879,-4.388 -5.643,-7.139 c -0.268,-0.337 -0.363,-0.674 0.49,-1.481 l -0.34,-0.441 -7.551,5.978 0.333,0.428 c 0.978,-0.659 1.285,-0.483 1.556,-0.135 l 5.098,6.447 0.937,15.575 c 0.121,1.745 0.088,1.946 -0.227,2.217 l 0.33,0.438 8.071,-6.365 -0.341,-0.445 c -0.442,0.335 -0.952,0.685 -1.234,0.262 -0.336,-0.375 -0.622,-6.599 -0.849,-9.41 0.97,0.418 8.862,2.481 9.166,2.831 0.297,0.421 -0.143,0.835 -0.476,1.095 l 0.333,0.441"
         style="fill:#ffffff;fill-opacity:1;fill-rule:nonzero;stroke:none;stroke-width:0.1"
         id="path58"
         inkscape:connector-curvature="0" /><path
         d="m 224.067,220.608 c 0.315,0.258 0.502,0.557 -0.143,1.558 l 0.436,0.336 6.863,-8.932 -0.417,-0.328 c -0.704,0.809 -1.055,0.858 -1.297,0.661 -0.388,-0.333 -2.263,-11.977 -3.091,-16.755 l 9.833,7.634 c 0.469,0.332 0.429,0.768 0.081,1.27 l 0.457,0.331 5.208,-6.753 -0.439,-0.346 c -0.784,0.871 -1.128,0.793 -1.473,0.512 l -17.241,-13.291 c -0.322,-0.266 -0.491,-0.562 0.154,-1.555 l -0.462,-0.35 -5.434,7.041 0.439,0.328 c 0.528,-0.647 0.817,-0.705 1.077,-0.524 0.483,0.373 0.242,1.653 3.636,19.861 l -11.627,-8.963 c -0.322,-0.256 -0.505,-0.564 0.139,-1.545 l -0.435,-0.34 -5.453,7.021 0.461,0.345 c 0.791,-0.892 1.128,-0.775 1.473,-0.524 l 17.255,13.308"
         style="fill:#ffffff;fill-opacity:1;fill-rule:nonzero;stroke:none;stroke-width:0.1"
         id="path60"
         inkscape:connector-curvature="0" /></g><g
       id="g952"
       inkscape:label="Brewery"
       style="display:inline"><path
         d="m 41.123,63.9141 5.0793,-6.1161 c 2.1129,-2.5199 3.4973,-3.0519 5.0719,-1.741 1.6188,1.311 1.3332,2.7871 -0.732,5.3239 l -5.0832,6.1183 z m 7.9981,6.6359 4.0867,-4.9129 c 2.5344,-3.0871 3.4203,-3.7082 4.8559,-2.525 1.4285,1.2211 0.989,2.1859 -1.5707,5.284 l -4.0504,4.8871 z m 1.6039,10.3922 c 0.3074,0.2816 0.4617,0.5957 -0.2199,1.5609 l 0.4582,0.3688 11.334,-13.734 c 3.2738,-3.9 4.1418,-7.9109 0.5929,-10.882 -2.1859,-1.793 -4.6906,-1.4649 -6.789,0.2011 l -0.0953,-0.0488 c 1.3843,-2.948 1.5453,-5.7883 -1.1282,-8.0043 -2.8781,-2.3707 -7.1043,-2.241 -11.3597,2.8691 l -11.4992,13.884 0.425,0.368 c 0.8312,-0.8238 1.1792,-0.7418 1.4941,-0.4758 l 16.7871,13.893"
         style="fill:#ffffff;fill-opacity:1;fill-rule:nonzero;stroke:none;stroke-width:0.1"
         id="path62"
         inkscape:connector-curvature="0" /><path
         d="m 69.9805,48.1461 6.5113,-4.4289 c 2.2559,-1.5602 3.6473,-1.0332 4.409,0.0808 0.7617,1.1129 0.7617,2.593 -1.5016,4.154 l -6.5039,4.4539 z m -7.2293,-10.559 c -0.2637,-0.348 -0.3145,-0.6832 0.6008,-1.4211 l -0.3149,-0.491 -7.9433,5.457 0.3042,0.4801 c 1.0215,-0.5699 1.3184,-0.4039 1.5637,-0.041 l 12.3227,17.966 c 0.2422,0.3461 0.3082,0.682 -0.5895,1.4289 l 0.2969,0.4559 14.1281,-9.661 c 5.7129,-3.9461 6.7641,-7.5949 3.7356,-12.005 -2.4172,-3.52 -6.0575,-3.8387 -9.8367,-2.55 l 0.1468,-9.5028 c 0,-0.7422 0.1977,-1.1679 0.6516,-1.4519 l -0.3149,-0.491 -8.0343,5.5097 0.3218,0.4633 c 0.5567,-0.3262 1.0036,-0.3523 1.3188,0.1098 0.2559,0.3621 -0.2051,8.4742 -0.1395,9.6402 l -3.7828,2.5797 -4.4351,-6.4758"
         style="fill:#ffffff;fill-opacity:1;fill-rule:nonzero;stroke:none;stroke-width:0.1"
         id="path64"
         inkscape:connector-curvature="0" /><path
         d="m 104.961,25.05 -0.527,0.168 c 0.066,0.6261 -0.096,1.1699 -0.967,1.4851 L 95.234,29.543 93.8133,25.4449 107.971,20.532 c 0.498,-0.1699 0.762,-0.0121 1.267,1.0371 l 0.531,-0.1781 -2.655,-7.6988 -0.527,0.2008 c 0.113,0.782 0.014,1.0812 -0.469,1.2379 l -22.0274,7.6441 0.161,0.5309 c 1.1539,-0.2887 1.3953,-0.0469 1.5343,0.3722 l 7.1196,20.5848 c 0.1246,0.3941 0.1168,0.7453 -0.945,1.2051 l 0.1575,0.5492 22.06,-7.6453 c 0.502,-0.177 0.736,0 1.238,0.9523 l 0.524,-0.164 -2.659,-7.6961 -0.531,0.1918 c 0.216,1.0582 0.106,1.3402 -0.384,1.5023 l -14.1801,4.9199 -1.2379,-3.6789 8.189,-2.8383 c 0.878,-0.291 1.355,0.0313 1.677,0.5403 l 0.52,-0.1614 -2.373,-6.8898"
         style="fill:#ffffff;fill-opacity:1;fill-rule:nonzero;stroke:none;stroke-width:0.1"
         id="path66"
         inkscape:connector-curvature="0" /><path
         d="m 122.257,12.077 v 0.5531 c 0.516,0.084 0.948,0.2008 0.948,0.8031 0,0.3219 -7.126,21.2969 -7.361,22.1449 -0.109,0.3758 -0.336,0.511 -0.472,0.511 v 0.5488 l 8.544,0.048 0.007,-0.5597 c -0.553,-0.1141 -0.981,-0.1953 -0.981,-0.7262 0,-0.5008 3.442,-10.632 4.64,-14.4281 h 0.076 c 1.121,3.514 4.314,14.009 4.314,14.4691 0,0.5129 -0.6,0.5801 -0.981,0.7012 v 0.55 l 11.1,0.0308 v -0.557 c -0.406,-0.1449 -0.769,-0.2289 -0.769,-0.709 0,-0.2711 3.303,-11.3691 3.973,-14.4449 h 0.092 c 0.549,2.2469 4.526,13.782 4.526,14.3879 0,0.557 -0.494,0.6539 -1,0.782 v 0.5731 l 7.899,0.0078 v -0.557 c -0.486,-0.0399 -0.728,-0.4098 -0.798,-0.8719 -0.179,-0.8141 -7.291,-21.4141 -7.291,-21.9738 0,-0.5571 0.535,-0.6102 0.963,-0.6461 V 12.166 l -9.734,-0.0328 v 0.5527 c 0.641,0.1012 0.92,0.286 0.92,0.6743 0,1.489 -2.798,10.0668 -4.534,16.3437 h -0.092 c -1.542,-5.425 -4.918,-15.5219 -4.903,-16.4008 0,-0.3621 0.413,-0.6289 1.018,-0.6289 V 12.1191 L 122.257,12.077"
         style="fill:#ffffff;fill-opacity:1;fill-rule:nonzero;stroke:none;stroke-width:0.1"
         id="path68"
         inkscape:connector-curvature="0" /><path
         d="m 179.521,29.4859 -0.523,-0.1769 c -0.341,0.516 -0.817,0.8551 -1.703,0.573 l -8.218,-2.8238 1.424,-4.107 14.177,4.825 c 0.498,0.1777 0.597,0.4519 0.362,1.5929 l 0.509,0.1899 2.622,-7.684 -0.509,-0.1738 c -0.406,0.666 -0.655,0.8558 -1.139,0.666 l -22.089,-7.507 -0.169,0.5418 c 1.066,0.4671 1.066,0.8222 0.978,1.2339 l -7.035,20.627 c -0.139,0.3601 -0.374,0.6531 -1.502,0.348 l -0.168,0.5493 22.057,7.5089 c 0.501,0.1668 0.59,0.445 0.403,1.4918 l 0.509,0.1871 2.615,-7.6921 -0.528,-0.1579 c -0.469,0.9532 -0.732,1.1141 -1.201,0.9532 l -14.216,-4.8293 1.237,-3.6821 8.262,2.7903 c 0.842,0.323 1.047,0.8551 0.949,1.4758 l 0.56,0.1781 2.336,-6.8981"
         style="fill:#ffffff;fill-opacity:1;fill-rule:nonzero;stroke:none;stroke-width:0.1"
         id="path70"
         inkscape:connector-curvature="0" /><path
         d="m 194.027,42.9832 6.445,4.4699 c 2.275,1.5649 2.275,3.034 1.502,4.1711 -0.758,1.1129 -2.172,1.609 -4.42,0.0559 l -6.446,-4.4781 z m 7.269,-10.5121 c 0.235,-0.3961 0.542,-0.5469 1.557,0.0359 l 0.296,-0.4629 -7.902,-5.482 -0.308,0.4731 c 0.908,0.7097 0.82,1.0796 0.578,1.4109 l -12.356,17.9098 c -0.249,0.3621 -0.564,0.5492 -1.567,-0.0368 l -0.322,0.4719 14.062,9.7219 c 5.695,3.9402 9.485,3.6293 12.528,-0.7508 2.469,-3.5742 1.436,-7.0262 -1.131,-10.1332 l 8.957,-3.25 c 0.667,-0.2437 1.161,-0.218 1.575,0.1043 l 0.337,-0.4691 -8.006,-5.5332 -0.314,0.4671 c 0.52,0.404 0.688,0.8 0.351,1.2829 -0.227,0.339 -7.979,2.8171 -9.023,3.2761 l -3.772,-2.598 4.46,-6.4379"
         style="fill:#ffffff;fill-opacity:1;fill-rule:nonzero;stroke:none;stroke-width:0.1"
         id="path72"
         inkscape:connector-curvature="0" /><path
         d="m 215.234,76.4379 5.666,6.8043 0.428,-0.3383 c -0.286,-0.3469 -0.169,-0.8609 -0.059,-1.3879 l 4.018,-14.993 7.005,-5.825 c 0.345,-0.289 0.7,-0.366 1.531,0.477 l 0.418,-0.3668 -6.153,-7.3973 -0.428,0.3332 c 0.663,0.952 0.509,1.2957 0.186,1.5661 l -6.335,5.2199 -15.571,1.3148 c -1.74,0.161 -1.948,0.1371 -2.19,-0.1738 l -0.462,0.368 6.578,7.914 0.439,-0.3562 c -0.344,-0.443 -0.711,-0.936 -0.315,-1.25 0.381,-0.3629 6.599,-0.766 9.401,-1.077 -0.414,1.0031 -2.289,8.9492 -2.641,9.2141 -0.395,0.3492 -0.827,-0.0949 -1.087,-0.4231 l -0.429,0.377"
         style="fill:#ffffff;fill-opacity:1;fill-rule:nonzero;stroke:none;stroke-width:0.1"
         id="path74"
         inkscape:connector-curvature="0" /></g><path
       inkscape:connector-curvature="0"
       id="path78"
       style="fill:#231f20;fill-opacity:1;fill-rule:nonzero;stroke:none;stroke-width:0.1"
       d="m 179.32,92.1141 v 1.139 h 0.711 c 0.376,0 0.952,-0.0062 0.952,-0.5172 0,-0.5199 -0.261,-0.6218 -0.693,-0.6218 z m 0,-0.925 h 0.403 l 1.161,-2.1442 h 1.172 l -1.275,2.241 c 0.872,0.0391 1.403,0.3789 1.403,1.309 0,1.2199 -0.788,1.566 -2.135,1.566 h -1.923 v -5.116 h 1.194 z m 0.751,-4.2969 c 2.508,0 4.878,1.7219 4.878,4.709 0,2.9988 -2.37,4.7187 -4.878,4.7187 -2.542,0 -4.897,-1.7199 -4.897,-4.7187 0,-2.9871 2.355,-4.709 4.897,-4.709 m 3.318,4.709 c 0,-2.118 -1.52,-3.534 -3.318,-3.534 -1.864,0 -3.34,1.416 -3.34,3.534 0,2.1238 1.476,3.5398 3.34,3.5398 1.798,0 3.318,-1.416 3.318,-3.5398"
       inkscape:label="®" /><path
       inkscape:label="Right circle"
       inkscape:connector-curvature="0"
       id="path80"
       style="fill:#c6ae4e;fill-opacity:1;fill-rule:nonzero;stroke:#231f20;stroke-width:1.13174999;stroke-miterlimit:4;stroke-dasharray:none;stroke-opacity:1"
       d="m 247.124,115.297 c 10.693,0 19.365,8.703 19.365,19.402 0,10.698 -8.672,19.367 -19.365,19.367 -10.73,0 -19.402,-8.669 -19.402,-19.367 0,-10.699 8.672,-19.402 19.402,-19.402" /><path
       inkscape:label="Left circle"
       inkscape:connector-curvature="0"
       id="path40"
       style="display:inline;fill:#c6ae4e;fill-opacity:1;fill-rule:nonzero;stroke:#231f20;stroke-width:1.13174999;stroke-miterlimit:4;stroke-dasharray:none;stroke-opacity:1"
       d="m 24.3211,115.297 c 10.6937,0 19.3727,8.703 19.3727,19.402 0,10.698 -8.679,19.367 -19.3727,19.367 -10.7004,0 -19.39063,-8.669 -19.39063,-19.367 0,-10.699 8.69023,-19.402 19.39063,-19.402" /></g></svg>